<svg width="221" height="73" viewBox="0 0 221 55" fill="none" xmlns="http://www.w3.org/2000/svg">
<g opacity="0.3" filter="url(#filter0_f_174117_119)">
<path d="M32 11.2321C33.8564 10.1603 36.1436 10.1603 38 11.2321L50.1865 18.268C52.0429 19.3398 53.1865 21.3205 53.1865 23.4641V37.5359C53.1865 39.6795 52.0429 41.6603 50.1865 42.7321L38 49.768C36.1436 50.8398 33.8564 50.8398 32 49.768L19.8135 42.7321C17.9571 41.6603 16.8135 39.6795 16.8135 37.5359V23.4641C16.8135 21.3205 17.9571 19.3398 19.8135 18.268L32 11.2321Z" fill="url(#paint0_linear_174117_119)"/>
</g>
<g opacity="0.4" filter="url(#filter1_f_174117_119)">
<path d="M32 16.2321C33.8564 15.1603 36.1436 15.1603 38 16.2321L51.0526 23.768C52.909 24.8398 54.0526 26.8205 54.0526 28.9641V44.0359C54.0526 46.1795 52.909 48.1603 51.0526 49.2321L38 56.768C36.1436 57.8398 33.8564 57.8398 32 56.768L18.9474 49.2321C17.091 48.1603 15.9474 46.1795 15.9474 44.0359V28.9641C15.9474 26.8205 17.091 24.8398 18.9474 23.768L32 16.2321Z" fill="url(#paint1_linear_174117_119)"/>
</g>
<path d="M32 3.23207C33.8564 2.16027 36.1436 2.16027 38 3.23207L53.6506 12.268C55.507 13.3398 56.6506 15.3205 56.6506 17.4641V35.5359C56.6506 37.6795 55.507 39.6603 53.6506 40.7321L38 49.768C36.1436 50.8398 33.8564 50.8398 32 49.768L16.3494 40.7321C14.493 39.6603 13.3494 37.6795 13.3494 35.5359L13.3494 17.4641C13.3494 15.3205 14.493 13.3398 16.3494 12.268L32 3.23207Z" fill="url(#paint2_linear_174117_119)"/>
<path d="M27.969 26.7168L35.1623 14.7812V14.7869L35.164 14.7812L42.3561 26.7151L42.3599 26.7168L35.1666 30.9689V30.9676L35.164 30.9692L35.1623 30.9675V30.9689L27.969 26.7168Z" fill="#030303"/>
<path d="M35.1623 38.2137V38.2188L27.9688 28.0819L35.1623 32.3317V32.3338L35.164 32.3317L42.3618 28.0819L35.164 38.2188L35.1623 38.2137Z" fill="#030303"/>
<path d="M85.728 38.5C83.2853 38.5 81.4773 37.9187 80.304 36.756C79.1413 35.5827 78.56 33.7747 78.56 31.332V23.972C78.56 21.508 79.1413 19.6947 80.304 18.532C81.4667 17.3587 83.264 16.7827 85.696 16.804H89.568C91.5733 16.804 93.104 17.22 94.16 18.052C95.216 18.8733 95.8293 20.1747 96 21.956C96.064 22.404 95.9787 22.7453 95.744 22.98C95.5093 23.2147 95.168 23.332 94.72 23.332C93.9093 23.332 93.44 22.884 93.312 21.988C93.2053 21.0067 92.864 20.3453 92.288 20.004C91.7227 19.6627 90.816 19.492 89.568 19.492H85.696C84.5653 19.4813 83.6747 19.6093 83.024 19.876C82.384 20.1427 81.9253 20.6067 81.648 21.268C81.3813 21.9187 81.248 22.82 81.248 23.972V31.332C81.248 32.4733 81.3813 33.3693 81.648 34.02C81.9253 34.6707 82.3893 35.1347 83.04 35.412C83.6907 35.6787 84.5867 35.812 85.728 35.812H89.568C90.816 35.812 91.7227 35.6413 92.288 35.3C92.864 34.948 93.2053 34.2867 93.312 33.316C93.44 32.42 93.9093 31.972 94.72 31.972C95.168 31.972 95.5093 32.0893 95.744 32.324C95.9787 32.5587 96.064 32.9 96 33.348C95.8293 35.14 95.216 36.4467 94.16 37.268C93.104 38.0893 91.5733 38.5 89.568 38.5H85.728ZM105.832 38.5C103.709 38.5 102.131 37.988 101.096 36.964C100.072 35.94 99.56 34.372 99.56 32.26V28.548C99.56 26.404 100.072 24.8253 101.096 23.812C102.131 22.788 103.709 22.276 105.832 22.276H108.456C110.589 22.276 112.168 22.788 113.192 23.812C114.216 24.836 114.728 26.4147 114.728 28.548V32.228C114.728 34.3507 114.216 35.9293 113.192 36.964C112.168 37.988 110.589 38.5 108.456 38.5H105.832ZM102.248 32.26C102.248 33.636 102.499 34.5747 103 35.076C103.501 35.5667 104.445 35.812 105.832 35.812H108.456C109.853 35.812 110.797 35.5613 111.288 35.06C111.789 34.5587 112.04 33.6147 112.04 32.228V28.548C112.04 27.1507 111.789 26.2067 111.288 25.716C110.797 25.2147 109.853 24.964 108.456 24.964H105.832C104.904 24.964 104.179 25.0707 103.656 25.284C103.144 25.4867 102.781 25.8493 102.568 26.372C102.355 26.884 102.248 27.6093 102.248 28.548V32.26ZM126.113 38.5C123.991 38.5 122.412 37.988 121.377 36.964C120.353 35.9293 119.841 34.3507 119.841 32.228V28.548C119.841 26.4147 120.353 24.836 121.377 23.812C122.412 22.788 123.991 22.276 126.113 22.276H132.321V17.316C132.321 16.42 132.769 15.972 133.665 15.972C134.561 15.972 135.009 16.42 135.009 17.316V37.156C135.009 38.052 134.561 38.5 133.665 38.5C132.769 38.5 132.321 38.052 132.321 37.156V36.932C131.82 37.444 131.164 37.8333 130.353 38.1C129.543 38.3667 128.535 38.5 127.329 38.5H126.113ZM126.113 35.812H127.329C128.737 35.812 129.921 35.6307 130.881 35.268C131.841 34.9053 132.321 34.3507 132.321 33.604V24.964H126.113C124.727 24.964 123.783 25.22 123.281 25.732C122.78 26.2333 122.529 27.172 122.529 28.548V32.228C122.529 33.6147 122.78 34.5587 123.281 35.06C123.793 35.5613 124.737 35.812 126.113 35.812ZM143.279 31.492V32.26C143.279 33.636 143.53 34.5747 144.031 35.076C144.533 35.5667 145.477 35.812 146.863 35.812H149.487C150.575 35.812 151.381 35.7107 151.903 35.508C152.426 35.3053 152.773 34.948 152.943 34.436C153.061 34.0307 153.221 33.7213 153.423 33.508C153.637 33.2947 153.957 33.188 154.383 33.188C154.831 33.188 155.173 33.3053 155.407 33.54C155.642 33.7747 155.717 34.116 155.631 34.564C155.397 35.8867 154.767 36.8733 153.743 37.524C152.719 38.1747 151.301 38.5 149.487 38.5H146.863C144.741 38.5 143.162 37.988 142.127 36.964C141.103 35.94 140.591 34.372 140.591 32.26V28.548C140.591 26.3827 141.103 24.7933 142.127 23.78C143.162 22.756 144.741 22.2547 146.863 22.276H149.487C151.621 22.276 153.199 22.788 154.223 23.812C155.247 24.8253 155.759 26.404 155.759 28.548V30.148C155.759 31.044 155.311 31.492 154.415 31.492H143.279ZM146.863 24.964C145.477 24.9427 144.533 25.1827 144.031 25.684C143.53 26.1853 143.279 27.14 143.279 28.548V28.804H153.071V28.548C153.071 27.1507 152.821 26.2067 152.319 25.716C151.829 25.2147 150.885 24.964 149.487 24.964H146.863ZM162.985 38.5C162.089 38.5 161.641 38.052 161.641 37.156V18.148C161.641 17.252 162.089 16.804 162.985 16.804C163.443 16.804 163.891 17.0707 164.329 17.604L177.193 34.18H176.521V18.148C176.521 17.252 176.969 16.804 177.865 16.804C178.761 16.804 179.209 17.252 179.209 18.148V37.156C179.209 38.052 178.761 38.5 177.865 38.5C177.385 38.5 176.937 38.2333 176.521 37.7L163.657 21.124H164.329V37.156C164.329 38.052 163.881 38.5 162.985 38.5ZM187.203 38.5C186.307 38.5 185.859 38.052 185.859 37.156V18.148C185.859 17.252 186.307 16.804 187.203 16.804H198.979C199.395 16.804 199.721 16.9267 199.955 17.172C200.201 17.4067 200.323 17.732 200.323 18.148C200.323 19.044 199.875 19.492 198.979 19.492H188.547V26.212H194.979C195.875 26.212 196.323 26.66 196.323 27.556C196.323 28.452 195.875 28.9 194.979 28.9H188.547V37.156C188.547 38.052 188.099 38.5 187.203 38.5ZM210.449 38.5C210.001 38.5 209.665 38.388 209.441 38.164C209.217 37.94 209.105 37.604 209.105 37.156V19.524H202.897C202.449 19.524 202.113 19.412 201.889 19.188C201.665 18.964 201.553 18.628 201.553 18.18C201.553 17.732 201.665 17.396 201.889 17.172C202.113 16.948 202.449 16.836 202.897 16.836H218.001C218.449 16.836 218.785 16.948 219.009 17.172C219.233 17.396 219.345 17.732 219.345 18.18C219.345 18.628 219.233 18.964 219.009 19.188C218.785 19.412 218.449 19.524 218.001 19.524H211.793V37.156C211.793 37.5827 211.676 37.9133 211.441 38.148C211.217 38.3827 210.886 38.5 210.449 38.5Z" fill="white"/>
<defs>
<filter id="filter0_f_174117_119" x="10.8135" y="4.42822" width="48.3731" height="52.1436" filterUnits="userSpaceOnUse" color-interpolation-filters="sRGB">
<feFlood flood-opacity="0" result="BackgroundImageFix"/>
<feBlend mode="normal" in="SourceGraphic" in2="BackgroundImageFix" result="shape"/>
<feGaussianBlur stdDeviation="3" result="effect1_foregroundBlur_174117_119"/>
</filter>
<filter id="filter1_f_174117_119" x="0.947449" y="0.428223" width="68.1051" height="72.1436" filterUnits="userSpaceOnUse" color-interpolation-filters="sRGB">
<feFlood flood-opacity="0" result="BackgroundImageFix"/>
<feBlend mode="normal" in="SourceGraphic" in2="BackgroundImageFix" result="shape"/>
<feGaussianBlur stdDeviation="7.5" result="effect1_foregroundBlur_174117_119"/>
</filter>
<linearGradient id="paint0_linear_174117_119" x1="6.72153" y1="-35.9194" x2="51.658" y2="-30.3015" gradientUnits="userSpaceOnUse">
<stop stop-color="#FF8D8D"/>
<stop offset="1" stop-color="#F7FC0E"/>
</linearGradient>
<linearGradient id="paint1_linear_174117_119" x1="5.37493" y1="-33.2285" x2="52.4543" y2="-27.355" gradientUnits="userSpaceOnUse">
<stop stop-color="#FF8D8D"/>
<stop offset="1" stop-color="#F7FC0E"/>
</linearGradient>
<linearGradient id="paint2_linear_174117_119" x1="1.33514" y1="-53.1557" x2="54.843" y2="-46.5154" gradientUnits="userSpaceOnUse">
<stop stop-color="#FF8D8D"/>
<stop offset="1" stop-color="#F7FC0E"/>
</linearGradient>
</defs>
</svg>
